<?xml version="1.0" encoding="UTF-8"?>
<svg width="512px" height="512px" viewBox="0 0 512 512" version="1.1" xmlns="http://www.w3.org/2000/svg" xmlns:xlink="http://www.w3.org/1999/xlink">
    <title>Group</title>
    <g id="Page-1" stroke="none" stroke-width="1" fill="none" fill-rule="evenodd">
        <g id="Group" transform="translate(0.000000, 0.000000)">
            <path d="M304.737102,270.949441 L380.591159,195.092085 C382.67769,193.003905 383.828993,190.218015 383.832292,187.247389 C383.832292,184.275113 382.680989,181.485925 380.591159,179.401043 L373.94395,172.755484 C371.85412,170.662355 369.06823,169.516 366.094305,169.516 C363.125328,169.516 360.339439,170.662355 358.249609,172.755484 L228.878096,302.532563 L153.020741,226.680156 C150.93421,224.587027 148.14667,223.440672 145.174395,223.440672 C142.205418,223.440672 139.417879,224.587027 137.331348,226.680156 L130.68084,233.325715 C126.352732,237.653824 126.352732,244.693597 130.68084,249.016757 L209.415983,326.212374 L214.386191,331.630957 L221.03505,338.276516 C223.12158,340.367996 225.910769,341.516 228.878096,341.516 C231.850372,341.516 234.637911,340.367996 236.724442,338.276516 L304.737102,270.949441 Z" id="Path" fill="#000000" fill-rule="nonzero"></path>
            <rect id="Rectangle" x="0" y="0" width="512" height="512"></rect>
            <circle id="Oval" stroke="#000000" stroke-width="25" cx="258.5" cy="253.5" r="212"></circle>
        </g>
    </g>
</svg>