<?xml version="1.0" standalone="no"?>
<svg version="1.0" xmlns="http://www.w3.org/2000/svg"
     width="512.000000pt" height="512.000000pt" viewBox="0 0 512.000000 512.000000"
     preserveAspectRatio="xMidYMid meet">

    <g transform="translate(0.000000,512.000000) scale(0.100000,-0.100000)"
       fill="#000000" stroke="none">
        <path d="M2300 4756 c-425 -55 -801 -211 -1134 -473 -39 -31 -125 -111 -192
-177 -342 -343 -556 -769 -631 -1256 -24 -159 -24 -481 0 -640 213 -1387 1602
-2243 2926 -1804 909 301 1530 1163 1531 2122 0 589 -220 1133 -633 1558 -190
198 -380 336 -622 454 -209 103 -392 162 -625 202 -150 25 -472 33 -620 14z
m461 -216 c317 -32 634 -144 899 -318 698 -455 1043 -1278 879 -2097 -11 -55
-40 -160 -64 -233 -323 -970 -1319 -1543 -2323 -1338 -601 124 -1119 522
-1397 1077 -323 642 -275 1415 125 2015 413 622 1143 968 1881 894z"/>
        <path d="M2420 3804 c-178 -38 -348 -171 -428 -334 -23 -47 -49 -112 -57 -145
-32 -126 -11 -315 48 -432 126 -247 400 -393 664 -353 213 32 386 155 483 340
50 98 70 180 70 300 0 181 -56 315 -185 446 -161 162 -374 226 -595 178z"/>
        <path d="M2065 2331 c-302 -272 -412 -485 -440 -858 l-8 -93 607 0 606 0 0
205 0 205 165 0 165 0 0 164 0 165 51 3 52 3 -67 71 c-36 40 -111 111 -166
159 l-100 88 -58 -26 c-189 -85 -414 -87 -607 -6 -38 16 -72 29 -75 29 -3 -1
-59 -49 -125 -109z"/>
        <path d="M3310 1805 l0 -165 -170 0 -170 0 0 -115 0 -115 170 0 170 0 0 -165
0 -165 115 0 115 0 0 165 0 165 165 0 165 0 0 115 0 115 -165 0 -165 0 0 165
0 165 -115 0 -115 0 0 -165z"/>
    </g>
</svg>
