<?xml version="1.0" encoding="UTF-8"?>
<svg width="512px" height="512px" viewBox="0 0 512 512" version="1.1" xmlns="http://www.w3.org/2000/svg" xmlns:xlink="http://www.w3.org/1999/xlink">
    <title>Group</title>
    <g id="Page-1" stroke="none" stroke-width="1" fill="none" fill-rule="evenodd">
        <g id="Group" transform="translate(0.000000, 0.000000)">
            <path d="M277.366813,256 L349.900732,183.458209 C351.895935,181.461298 352.996846,178.797174 353,175.956387 C353,173.114024 351.899089,170.446745 349.900732,168.452989 L343.544472,162.097893 C341.546114,160.09625 338.882163,159 336.038407,159 C333.199382,159 330.535431,160.09625 328.537073,162.097893 L256.003154,234.634952 L183.466081,162.097893 C181.470878,160.09625 178.80535,159 175.963171,159 C173.124146,159 170.458618,160.09625 168.463415,162.097893 L162.104,168.452989 C157.965333,172.591925 157.965333,179.324005 162.104,183.458209 L234.639496,256 L162.104,328.538637 C160.10722,330.538702 159.007886,333.202826 159.007886,336.043613 C159.007886,338.884399 160.10722,341.548523 162.104,343.547011 L168.461837,349.902107 C170.457041,351.902172 173.124146,353 175.961593,353 C178.803772,353 181.469301,351.902172 183.464504,349.902107 L256.001577,277.363471 L328.535496,349.902107 C330.533854,351.902172 333.197805,353 336.036829,353 L336.039984,353 C338.880585,353 341.544537,351.902172 343.542894,349.902107 L349.899154,343.547011 C351.894358,341.550101 352.995268,338.884399 352.995268,336.043613 C352.995268,333.202826 351.894358,330.538702 349.899154,328.540214 L277.366813,256 Z" id="Path" fill="#000000" fill-rule="nonzero"></path>
            <rect id="Rectangle" x="0" y="0" width="512" height="512"></rect>
            <circle id="Oval" stroke="#000000" stroke-width="25" cx="258.5" cy="253.5" r="212"></circle>
        </g>
    </g>
</svg>