<?xml version="1.0" encoding="UTF-8"?>
<svg width="790px" height="1192px" viewBox="0 0 790 1192" version="1.1" xmlns="http://www.w3.org/2000/svg">
    <title>XMLID_1_</title>
    <g id="Page-1" stroke="none" stroke-width="1" fill="none" fill-rule="evenodd">
        <g id="owl" fill="#191919" fill-rule="nonzero">
            <g id="Group">
                <path d="M781.13,64.6604611 C784.05999,78.9904611 786.97998,93.3304711 789.90997,107.660471 C770.12,109.620461 750.32001,111.570461 730.53003,113.530461 L781.13,64.6604611 Z"
                      id="Path"></path>
                <path d="M722.15997,114.360461 C722.11999,114.360461 722.09002,114.370451 722.04998,114.370451 C710.55999,117.110461 695.7,121.090451 678.60998,126.870451 C678.40997,126.520461 678.20001,126.160461 677.99999,125.810451 L781.12999,64.6604511 L730.53001,113.530451 C727.73999,113.810461 724.95001,114.080461 722.15997,114.360461 Z"
                      id="Path"></path>
                <path d="M572.47998,175.880451 C550.14001,189.720461 526.34003,207.250461 503.08002,229.530451 L394.91001,293.660451 C408.78001,267.320451 432.44001,229.260461 470.90998,191.660461 C521.54999,142.160471 571.87,118.880461 598.90998,106.660471 C655.14001,81.2504611 704.38,72.1904611 732.32001,68.5104611 C752.09003,65.9004611 768.87,64.9804611 781.13001,64.6604611 L678,125.810461 L672.84003,128.870461 C669.77002,129.940471 666.63001,131.080471 663.44001,132.280461 C657.01002,134.690461 649.19001,137.660461 640.28999,141.340461 C627.91999,146.470461 613.47999,152.980461 597.78004,161.340461 C589.64001,165.670461 581.16998,170.500461 572.47998,175.880451 Z"
                      id="Path"></path>
                <path d="M213.69,488.940451 C194.47999,488.530481 177.52,488.010461 153.14999,478.500451 L153.14,478.500451 C133.12,470.690451 116.41,459.060451 108,453.200461 C101.37,448.590471 91.03,441.390461 80.47,431.540461 C78.65,429.840481 76.82,428.060451 75,426.200461 C59.57,410.420461 50.14,394.160451 43.16,379.190451 C40.06,372.550471 37.44,366.170461 35,360.200461 C14.64,310.510461 14.85,267.920461 15,259.200461 C15.85,208.450461 32.21,172.270471 36,164.200461 C45.11,144.770471 55.67,129.700461 64.41,118.930461 L98.47,151.830461 C62.88,226.460461 58.08,304.520461 92.16,358.300461 C111.46,388.750441 142.75999,410.660451 145,412.200451 C186.25,440.610451 220,440.030441 263,452.200451 C296.01001,461.540451 342.67001,480.720471 394.67999,524.930431 L394.91,524.660471 C447.04998,480.260451 493.83001,461.020461 526.90997,451.660441 C569.90002,439.490461 603.65002,440.070441 644.90997,411.660441 C647.14001,410.120471 678.44,388.210471 697.75,357.760461 C731.83002,303.980461 727.02002,225.910451 691.42999,151.290461 L725.5,118.380461 C734.22998,129.150461 744.78998,144.220471 753.90997,163.660471 C757.69,171.740461 774.05999,207.910471 774.90997,258.660451 C775.04998,267.380461 775.26001,309.980461 754.90997,359.660451 C752.46002,365.620471 749.84997,372.000451 746.76001,378.620471 C739.78003,393.600451 730.34998,409.880451 714.90997,425.660451 C713.09002,427.520471 711.26001,429.300461 709.44,431.000451 C698.86999,440.850461 688.53998,448.050471 681.90997,452.660451 C673.5,458.520471 656.78003,470.150471 636.77002,477.960471 L636.76001,477.960471 C612.39001,487.470481 595.42999,487.990441 576.21997,488.400471 L576.21002,488.400471 C504.21997,489.940451 447.37,541.140461 437.91,549.660481 C426.73001,559.720481 410.07998,576.940451 394.91,603.660481 L394.73999,603.760461 C379.64999,577.290491 363.10999,560.200461 352,550.200461 C342.54001,541.680441 285.67999,490.480491 213.69,488.940451 Z"
                      id="Path"></path>
                <path d="M767.60999,460.320461 C781.33002,506.800441 773.90998,571.280481 773.90998,571.280481 C754.31,728.120451 678.90998,853.660481 678.90998,853.660481 C659.52003,885.290481 628.71003,929.830461 582.47999,977.170431 C576.60999,961.070451 571.76002,944.830461 567.78999,928.650471 C576.44,918.490441 597.13,886.240441 627.62,845.580461 C627.62,845.580461 703.06,719.690451 722.62,563.210461 C722.62,563.210461 730.03998,498.720471 716.32001,452.240461 C713.90003,444.050461 711.54999,436.860461 709.44001,431.000441 C711.26002,429.300461 713.09003,427.520461 714.90998,425.660441 C730.34998,409.880441 739.78004,393.600441 746.76002,378.620461 C745.39002,384.860451 744.77003,391.990461 745.90998,399.660441 C747.46998,410.230451 751.43,415.550451 757.90998,431.660441 C757.90997,431.660451 761.26001,438.820461 767.60999,460.320461 Z"
                      id="Path"></path>
                <path d="M725.5,118.380451 L691.42999,151.290451 C687.52002,143.090451 683.25,134.940461 678.60998,126.870451 C695.70001,121.090451 710.55999,117.110461 722.04998,114.370451 C722.09002,114.370451 722.11999,114.360461 722.15997,114.360461 C723.22998,115.630451 724.34998,116.970461 725.5,118.380451 Z"
                      id="Path"></path>
                <path d="M662.34003,179.380451 C669.13001,196.670461 673.79999,218.490471 670.90998,243.660451 C670.25001,249.350451 662.51002,308.550461 612.59998,340.150471 C577.34998,362.460471 530.97998,364.730461 488.28003,347.490471 L526.66998,310.410451 C553.32,316.370471 580.98999,310.820451 599.90997,294.660451 C621.19,276.480461 630.84997,245.350451 625.69,214.780461 L662.34003,179.380451 Z"
                      id="Path"></path>
                <path d="M662.34003,179.380451 L625.69,214.780461 C623,198.760461 616.22998,182.890461 604.92999,169.130451 L643.90997,146.020461 C649.40002,153.470461 656.63,164.820461 662.34003,179.380451 Z"
                      id="Path"></path>
                <path d="M643.90997,146.020471 L604.92999,169.130461 C602.71997,166.440471 600.34002,163.830471 597.78003,161.340471 C613.47998,152.980471 627.91998,146.470471 640.28998,141.340471 C641.37,142.670461 642.59003,144.230461 643.90997,146.020471 Z"
                      id="Path"></path>
                <path d="M394.67999,144.970461 L394.91,144.730461 C422.82998,118.300471 447.70001,100.410471 465.91,88.6604611 C484.09997,76.9204611 519.51001,55.9304611 519.51001,55.9304611 C501.96002,52.3504611 481.85999,49.3104611 459.56,47.7104611 C435.82001,46.0104611 414.26999,46.2904511 395.48999,47.5204611 L394.41,48.0604611 C375.64001,46.8304611 354.08999,46.5504611 330.35,48.2504611 C308.04998,49.8404611 287.94,52.8904611 270.39999,56.4704511 C270.39999,56.4704511 305.80999,77.4604611 324,89.2004511 C342.13,100.900461 366.89001,118.700461 394.67999,144.970461 Z M393.78,1.17046106 C460.26001,-3.42953894 539.84998,4.22046106 612.52002,47.8004611 C617.82001,50.9804611 622.95001,54.2704611 627.90997,57.6504611 C593.84997,70.0304611 551.69,88.8104611 506.90997,117.660471 C458.07998,149.120461 421.22,182.830471 394.91,210.660471 L394.69,210.870461 C375.29001,190.380451 350.17999,166.720471 318.79999,143.140461 L318.79001,143.140461 C307.66,134.760461 295.73999,126.400461 283,118.200461 C238.22,89.3504611 196.06,70.5704611 162,58.1904611 C166.96001,54.8104611 172.08,51.5204611 177.38,48.3404611 C249.51999,5.07046106 328.23999,-2.90953894 393.78,1.17046106 Z"
                      id="Shape"></path>
                <path d="M394.91,1146.20046 L394.91,1145.66042 C440.16,1145.7405 472.34997,1132.19045 488.90997,1123.66042 C510.14001,1112.72048 549.59997,1092.38051 555.90997,1057.66042 C560.10998,1034.52041 547.34002,1017.27041 535.90997,995.660421 C531.94,988.170431 528.52002,980.870441 525.53003,973.570451 C539.64002,959.980481 553.82001,945.040481 567.78998,928.650471 C571.76001,944.830461 576.60999,961.070451 582.47998,977.170431 C583.27002,979.330461 584.08002,981.500451 584.90997,983.660481 C587.65002,990.820461 590.69,997.570461 590.69,997.570461 C595.76001,1008.84048 600.16998,1016.50051 601.90997,1019.66043 C611.65002,1037.42044 615.38,1056.53043 615.90997,1059.66043 C621.80999,1095.04043 558.85998,1138.62051 522.40997,1157.83047 C498.84997,1170.2405 455.61999,1188.67044 394.91,1190.66043 L394.89001,1191.20046 C334.23999,1189.19045 291.04,1170.77041 267.5,1158.3705 C231.04001,1139.16042 168.10001,1095.58046 174,1060.20046 C174.52,1057.07046 178.25999,1037.96047 188,1020.20046 C189.73,1017.04043 194.14999,1009.38051 199.22,998.110491 C199.22,998.110491 202.25999,991.350481 205,984.200461 C205.83,982.040491 206.64,979.870441 207.42999,977.710471 C213.3,961.610431 218.14999,945.370441 222.11999,929.190451 C236.08999,945.580461 250.26998,960.520471 264.38,974.110431 C261.39001,981.400471 257.97,988.700461 254,996.200461 C242.56,1017.81045 229.79999,1035.06045 234,1058.20046 C240.29999,1092.92043 279.76999,1113.26052 301,1124.20046 C317.54001,1132.72048 349.70999,1146.26052 394.91,1146.20046 Z"
                      id="Path"></path>
                <path d="M576.21997,488.400471 C595.42999,487.990441 612.39001,487.470481 636.76001,477.960471 C593.29999,549.020471 573.58002,613.710471 563.90997,656.660481 C563.90997,656.660481 533.79998,790.270471 567.78997,928.650471 C553.82,945.040481 539.64001,959.980491 525.53002,973.570451 C518.45,956.310441 513.83001,939.090471 510.27001,919.410481 C506.08001,896.250451 503.38,869.690451 499.90996,835.660481 C497.96002,816.560451 491.56,743.500451 512.62,651.390461 C528.39002,582.420431 553.88001,527.530471 576.21003,488.400471 L576.21997,488.400471 Z"
                      id="Path"></path>
                <path d="M579.90997,183.970461 C591.63,199.310461 595.21002,219.360461 588.72998,237.040451 C580.78998,258.700451 559.88,270.980451 539.90997,272.660451 C518.84002,274.440451 498.27002,264.490471 486.15997,246.690451 C491.75,240.670461 497.40002,234.950461 503.08001,229.530451 L579.90997,183.970461 Z"
                      id="Path"></path>
                <path d="M579.90997,183.970461 L503.08001,229.530441 C526.34002,207.250461 550.14001,189.720461 572.47997,175.880451 C575.23999,178.370461 577.71997,181.090461 579.90997,183.970461 Z"
                      id="Path"></path>
                <path d="M526.66998,310.410451 L488.28003,347.490471 C469.62,339.940451 451.64999,328.670461 435.63,313.700461 C444.42999,299.170461 454.67001,284.250451 466.60998,269.340471 L466.91,269.580461 C482.06,291.920461 503.98999,305.340471 526.66998,310.410451 Z"
                      id="Path"></path>
                <path d="M394.70999,1016.05044 L394.91,1015.66043 C413,1006.24051 435.04,992.750521 457.91,973.660491 C480.65997,954.660491 497.79998,935.470491 510.27002,919.410491 C513.83002,939.090481 518.45001,956.310451 525.53003,973.570461 C477.22998,1020.14041 429.81,1051.02041 394.91,1070.66043 L394.70001,1071.03043 C359.82998,1051.38053 312.54001,1020.55045 264.38,974.110451 C271.45001,956.850501 276.07998,939.640481 279.64001,919.960491 C292.12,936.020471 309.25,955.200461 332,974.200461 C354.73999,993.190451 376.67999,1006.6404 394.70999,1016.05044 Z"
                      id="Path"></path>
                <path d="M354.26999,314.240471 C345.48001,299.720451 335.23999,284.790461 323.29001,269.890461 C317.23001,262.310441 310.73001,254.730461 303.75,247.220451 C298.17001,241.220451 292.54001,235.510461 286.87,230.090481 L395,294.200461 C394.92001,294.050471 394.84,293.900471 394.76001,293.740471 L394.91,293.660451 L503.08001,229.530451 C497.40002,234.950461 491.74999,240.670461 486.15997,246.690451 C479.17999,254.200461 472.67999,261.770471 466.60998,269.340471 C454.67001,284.250451 444.42999,299.170461 435.63,313.700461 C415.32,347.230461 402.75,378.620471 394.86999,402.710471 C386.97,378.690451 374.42999,347.520471 354.26999,314.240471 Z"
                      id="Path"></path>
                <path d="M192.13,161.880451 C176.42999,153.520461 161.97999,147.010451 149.61,141.880451 C140.71001,138.200461 132.89,135.230461 126.46001,132.820451 C123.27,131.620451 120.14,130.490451 117.07001,129.410461 L111.91001,126.350451 L8.77,65.2004611 C21.03,65.5204611 37.82,66.4404611 57.59,69.0504611 C85.53,72.7304611 134.77,81.7904611 191,107.200461 C218.04001,119.420461 268.35999,142.700461 319,192.200461 C357.25,229.580461 380.85999,267.420461 394.76001,293.740471 C394.84,293.900471 394.92001,294.050471 395,294.200461 L286.87,230.090471 C263.59,207.800461 239.79001,190.270461 217.43,176.420461 C208.74001,171.030461 200.25999,166.210451 192.13,161.880451 Z"
                      id="Path"></path>
                <path d="M323.29001,269.890461 C335.23999,284.790451 345.48001,299.720451 354.26999,314.240471 C338.25,329.210471 320.28,340.480461 301.62,348.020471 L263.23001,310.950461 C285.91,305.880451 307.85001,292.460471 323,270.120471 L323.29001,269.890461 Z"
                      id="Path"></path>
                <path d="M263.23001,310.950461 L301.62,348.020471 C258.93,365.270471 212.56,363.000451 177.31,340.690451 C127.39999,309.090471 119.64999,249.890461 119,244.200461 C116.11,219.040461 120.77,197.220461 127.57001,179.930461 L164.21001,215.320461 C159.05001,245.880461 168.71001,277.020471 190,295.200461 C208.92,311.360461 236.59,316.910451 263.23001,310.950461 Z"
                      id="Path"></path>
                <path d="M279.64001,919.960471 C276.07998,939.640461 271.45001,956.850481 264.38,974.110431 C250.26999,960.520471 236.09,945.580461 222.12,929.190451 C256.10999,790.810451 226,657.200461 226,657.200461 C216.32999,614.250451 196.60001,549.560451 153.14999,478.500451 C177.52,488.010461 194.47999,488.530481 213.69,488.940451 C236.01999,528.070451 261.51999,582.960471 277.29001,651.930441 C298.35001,744.040491 291.95001,817.100481 290,836.200461 C286.54001,870.240441 283.82999,896.800441 279.64001,919.960471 Z"
                      id="Path"></path>
                <path d="M286.87,230.090471 C292.54001,235.510461 298.17002,241.220441 303.75,247.220441 C291.64001,265.020471 271.06,274.980461 250,273.200461 C230.03,271.510461 209.12,259.240471 201.17999,237.580461 C194.7,219.910451 198.28,199.840461 209.99001,184.510461 L286.87,230.090471 Z"
                      id="Path"></path>
                <path d="M286.87,230.090471 L209.99001,184.510461 C212.18,181.630461 214.67002,178.910471 217.43,176.420461 C239.79001,190.270471 263.59,207.800471 286.87,230.090471 Z"
                      id="Path"></path>
                <path d="M222.12,929.190451 C218.15,945.370441 213.30001,961.610431 207.43,977.710471 C161.19,930.360431 130.39,885.830461 111,854.200461 C111,854.200461 35.6,728.660481 16,571.820461 C16,571.820461 8.58,507.340481 22.3,460.860471 C28.64,439.360461 32,432.200461 32,432.200461 C38.48,416.090471 42.44,410.770471 44,400.200461 C45.14,392.550471 44.53,385.430471 43.16,379.190451 C50.14,394.160451 59.57,410.420461 75,426.200461 C76.82,428.060451 78.65,429.840471 80.47,431.540461 C78.36,437.400481 76.01,444.590481 73.59,452.780451 C59.87001,499.260461 67.29,563.740441 67.29,563.740441 C86.85001,720.230491 162.28999,846.120441 162.28999,846.120441 C192.78,886.780481 213.46001,919.030481 222.12,929.190451 Z"
                      id="Path"></path>
                <path d="M192.13,161.880451 C189.57,164.370461 187.17999,166.990451 184.97999,169.680451 L146,146.560461 C147.32001,144.770471 148.53999,143.210451 149.61,141.880451 C161.98,147.010461 176.42999,153.520471 192.13,161.880451 Z"
                      id="Path"></path>
                <path d="M146,146.560461 L184.98,169.680461 C173.67,183.430461 166.9,199.300471 164.21001,215.320461 L127.57001,179.930461 C133.27,165.370461 140.5,154.010461 146,146.560461 Z"
                      id="Path"></path>
                <path d="M67.75,114.900461 C64.96,114.620461 62.16,114.350461 59.37,114.070461 L8.77,65.2004611 L111.91,126.350451 C111.7,126.700461 111.5,127.060461 111.28999,127.410471 C94.19999,121.630461 79.33999,117.650461 67.86,114.910471 C67.82,114.910471 67.79,114.900461 67.75,114.900461 Z"
                      id="Path"></path>
                <path d="M111.28999,127.410471 C106.66,135.480461 102.38,143.640461 98.47,151.830461 L64.41,118.930461 C65.55999,117.510461 66.66999,116.170471 67.75,114.900461 C67.79,114.900461 67.82,114.910471 67.86,114.910471 C79.34,117.650461 94.2,121.630451 111.28999,127.410471 Z"
                      id="Path"></path>
                <path d="M8.77,65.2004611 L59.37,114.070461 C39.58,112.110461 19.79,110.160471 0,108.200461 C2.92,93.8704611 5.85,79.5304611 8.77,65.2004611 Z"
                      id="Path"></path>
            </g>
        </g>
    </g>
</svg>