<?xml version="1.0" encoding="UTF-8"?>
<svg width="448px" height="448px" viewBox="0 0 448 448" version="1.1" xmlns="http://www.w3.org/2000/svg" xmlns:xlink="http://www.w3.org/1999/xlink">
    <title>add_friend</title>
    <g id="Page-1" stroke="none" stroke-width="1" fill="none" fill-rule="evenodd">
        <g id="add_friend" transform="translate(-0.000000, 0.000000)" fill="#000000" fill-rule="nonzero">
            <g id="Group" transform="translate(223.750000, 223.807902) scale(-1, 1) rotate(-180.000000) translate(-223.750000, -223.807902) translate(0.000000, 0.000000)">
                <path d="M197.5,446.564553 C155,441.064553 117.4,425.464553 84.1,399.264553 C80.2,396.164553 71.6,388.164553 64.9,381.564553 C30.7,347.264553 9.3,304.664553 1.8,255.964553 C-0.6,240.064553 -0.6,207.864553 1.8,191.964553 C23.1,53.2645525 162,-32.3354475 294.4,11.5645525 C385.3,41.6645525 447.4,127.864553 447.5,223.764553 C447.5,282.664553 425.5,337.064553 384.2,379.564553 C365.2,399.364553 346.2,413.164553 322,424.964553 C301.1,435.264553 282.8,441.164553 259.5,445.164553 C244.5,447.664553 212.3,448.464553 197.5,446.564553 Z M243.6,424.964553 C275.3,421.764553 307,410.564553 333.5,393.164553 C403.3,347.664553 437.8,265.364553 421.4,183.464553 C420.3,177.964553 417.4,167.464553 415,160.164553 C382.7,63.1645525 283.1,5.86455251 182.7,26.3645525 C122.6,38.7645525 70.8,78.5645525 43,134.064553 C10.7,198.264553 15.5,275.564553 55.5,335.564553 C96.8,397.764553 169.8,432.364553 243.6,424.964553 Z" id="Shape"></path>
                <path d="M209.5,351.364553 C191.7,347.564553 174.7,334.264553 166.7,317.964553 C164.4,313.264553 161.8,306.764553 161,303.464553 C157.8,290.864553 159.9,271.964553 165.8,260.264553 C178.4,235.564553 205.8,220.964553 232.2,224.964553 C253.5,228.164553 270.8,240.464553 280.5,258.964553 C285.5,268.764553 287.5,276.964553 287.5,288.964553 C287.5,307.064553 281.9,320.464553 269,333.564553 C252.9,349.764553 231.6,356.164553 209.5,351.364553 Z" id="Path"></path>
                <path d="M174,204.064553 C143.8,176.864553 132.8,155.564553 130,118.264553 L129.2,108.964553 L189.9,108.964553 L250.5,108.964553 L250.5,129.464553 L250.5,149.964553 L267,149.964553 L283.5,149.964553 L283.5,166.364553 L283.5,182.864553 L288.6,183.164553 L293.8,183.464553 L287.1,190.564553 C283.5,194.564553 276,201.664553 270.5,206.464553 L260.5,215.264553 L254.7,212.664553 C235.8,204.164553 213.3,203.964553 194,212.064553 C190.2,213.664553 186.8,214.964553 186.5,214.964553 C186.2,214.864553 180.6,210.064553 174,204.064553 Z" id="Path"></path>
                <polygon id="Path" points="298.5 151.464553 298.5 134.964553 281.5 134.964553 264.5 134.964553 264.5 123.464553 264.5 111.964553 281.5 111.964553 298.5 111.964553 298.5 95.4645525 298.5 111.964553 309.5 111.964553 321.5 111.964553 321.5 95.4645525 321.5 111.964553 338 111.964553 354.5 111.964553 354.5 123.464553 354.5 134.964553 338 134.964553 321.5 134.964553 321.5 151.464553 321.5 134.964553 310 134.964553 298.5 134.964553"></polygon>
            </g>
        </g>
    </g>
</svg>