<?xml version="1.0" encoding="UTF-8"?>
<svg width="448px" height="448px" viewBox="0 0 448 448" version="1.1" xmlns="http://www.w3.org/2000/svg" xmlns:xlink="http://www.w3.org/1999/xlink">
    <title>send_message</title>
    <g id="Page-1" stroke="none" stroke-width="1" fill="none" fill-rule="evenodd">
        <g id="send_message" transform="translate(0.500000, 0.348749)" fill="#000000" fill-rule="nonzero">
            <g id="Group" transform="translate(223.750000, 223.807902) scale(-1, 1) rotate(-180.000000) translate(-223.750000, -223.807902) translate(0.000000, 0.000000)">
                <path d="M197.5,446.564553 C155,441.064553 117.4,425.464553 84.1,399.264553 C80.2,396.164553 71.6,388.164553 64.9,381.564553 C30.7,347.264553 9.3,304.664553 1.8,255.964553 C-0.6,240.064553 -0.6,207.864553 1.8,191.964553 C23.1,53.2645525 162,-32.3354475 294.4,11.5645525 C385.3,41.6645525 447.4,127.864553 447.5,223.764553 C447.5,282.664553 425.5,337.064553 384.2,379.564553 C365.2,399.364553 346.2,413.164553 322,424.964553 C301.1,435.264553 282.8,441.164553 259.5,445.164553 C244.5,447.664553 212.3,448.464553 197.5,446.564553 Z M243.6,424.964553 C275.3,421.764553 307,410.564553 333.5,393.164553 C403.3,347.664553 437.8,265.364553 421.4,183.464553 C420.3,177.964553 417.4,167.464553 415,160.164553 C382.7,63.1645525 283.1,5.86455251 182.7,26.3645525 C122.6,38.7645525 70.8,78.5645525 43,134.064553 C10.7,198.264553 15.5,275.564553 55.5,335.564553 C96.8,397.764553 169.8,432.364553 243.6,424.964553 Z" id="Shape"></path>
            </g>
            <path d="M108.374744,333.763215 C103.66722,332.675314 99.9117791,330.384995 96.209232,326.376936 C92.4537914,322.31162 90.3909437,318.303562 89.3330731,312.921312 C88.222309,307.31003 88.222309,142.063507 89.3330731,136.452225 C90.3909437,131.069975 92.4537914,127.061917 96.209232,122.996601 C99.9646727,118.931284 103.66722,116.698223 108.639211,115.553064 C113.875671,114.350646 334.124329,114.350646 339.360789,115.553064 C344.332781,116.698223 348.035328,118.931284 351.790768,122.996601 C355.546208,127.061917 357.609057,131.069975 358.666927,136.452225 C359.777691,142.063507 359.777691,307.31003 358.666927,312.921312 C357.609057,318.303562 355.546208,322.31162 351.790768,326.376936 C348.035328,330.442253 344.332781,332.675314 339.360789,333.820473 C334.335903,334.965633 113.293842,334.908375 108.374744,333.763215 Z M327.5,317.418826 C325.544824,315.443216 224.581162,236.651251 224,236.651251 C223.418838,236.651251 122.455176,315.443216 120.5,317.418826 C120.394692,317.535038 166.940473,317.651251 224,317.651251 C281.059527,317.651251 327.605308,317.535038 327.5,317.418826 Z M162.237552,262.084255 C197.54612,234.781952 219.567656,218.090839 220.891066,217.689334 C222.532093,217.173113 223.484948,217.173113 225.125977,217.689334 C226.449386,218.090839 248.682667,234.954026 284.255918,262.485759 L341.32134,306.651251 L341.480149,225.03113 C341.533085,180.177345 341.480149,142.608 341.32134,141.57556 C340.897849,139.051817 338.198093,135.89714 335.868892,135.151488 C334.492546,134.692626 299.395724,134.57791 221.843921,134.692626 L109.777595,134.864699 L108.348313,136.069213 C107.554267,136.700148 106.389667,137.962019 105.807367,138.822386 C104.695703,140.371047 104.695703,140.600477 104.536893,223.539828 C104.431021,289.673347 104.536893,306.651251 105.066257,306.307104 C105.436812,306.020315 131.163895,286.174523 162.237552,262.084255 Z" id="Shape" transform="translate(224.000000, 224.651251) scale(-1, 1) rotate(-180.000000) translate(-224.000000, -224.651251) "></path>
        </g>
    </g>
</svg>